# xmcd CD database file
#
# Track frame offsets:
#	150
#	17161
#	29270
#	38767
#	53935
#	67466
#	78807
#	91072
#	106568
#	117814
#	141225
#
# Disc length: 1987 seconds
#
# Revision: 0
# Processed by: cddbd v1.5.1PL0 Copyright (c) Steve Scherf et al.
# Submitted via: CDex 1.51
#
DISCID=8707c10b
DTITLE=Monica Mann - Mixed Emotions
DYEAR=2002
DGENRE=Country
TTITLE0=Maybe He'll Notice Her Now
TTITLE1=Boots Are Made For Walking
TTITLE2=Wine, Women, and Song
TTITLE3=Mixed Emotions
TTITLE4=Jambalaya
TTITLE5=Before I Am Over You
TTITLE6=Lovesick Blues
TTITLE7=Old White Joe
TTITLE8=Throw Me A Love Line
TTITLE9=Cotton Eyed Joe
TTITLE10=Thank You
EXTD=YEAR: 2002
EXTT0=
EXTT1=
EXTT2=
EXTT3=
EXTT4=
EXTT5=
EXTT6=
EXTT7=
EXTT8=
EXTT9=
EXTT10=
PLAYORDER=
